<svg xmlns="http://www.w3.org/2000/svg" viewBox="0 0 1200 700" role="img"><title>ASK1 · 데이터 수집과 조회 구조</title><desc>API 원본을 JSONL과 Snowflake RAW에 보존하고 STAGING과 MART 뷰를 거쳐 Streamlit에서 조회합니다.</desc><rect width="1200" height="700" fill="#f4f6f8"/><g font-family="Segoe UI,Malgun Gothic,sans-serif" fill="#172c43"><text x="60" y="72" font-size="30" font-weight="700">ASK1 · 데이터 수집과 조회 구조</text><text x="60" y="110" font-size="21">저장 데이터와 조회 규칙을 분리하고, 검증 결과를 별도로 보존</text><rect x="60" y="160" width="320" height="210" rx="10" fill="white" stroke="#cbd5df"/><text x="84" y="204" font-size="25">공개 API</text><text x="84" y="247" font-size="22">ChEMBL</text><text x="84" y="282" font-size="22">Open Targets</text><text x="84" y="317" font-size="22">ClinicalTrials.gov</text><rect x="440" y="160" width="320" height="210" rx="10" fill="white" stroke="#cbd5df"/><text x="464" y="204" font-size="25">원본 보존</text><text x="464" y="247" font-size="22">JSONL</text><text x="464" y="282" font-size="22">Snowflake RAW</text><text x="464" y="317" font-size="22">5개 테이블 · 4,465건</text><rect x="820" y="160" width="320" height="210" rx="10" fill="white" stroke="#cbd5df"/><text x="844" y="204" font-size="25">정제 및 연결</text><text x="844" y="247" font-size="22">STAGING · 6개 뷰</text><text x="844" y="282" font-size="22">MART · 3개 뷰</text><text x="844" y="317" font-size="22">원본을 조회하는 규칙</text><text x="394" y="272" font-size="32">→</text><text x="774" y="272" font-size="32">→</text><rect x="60" y="420" width="520" height="174" rx="10" fill="white" stroke="#cbd5df"/><text x="84" y="463" font-size="25">MONITORING</text><text x="84" y="502" font-size="22">실행 이력 · 변경 로그 · 품질검사</text><text x="84" y="540" font-size="22">PDF 검토 후보 · 의미 검토 상태</text><rect x="620" y="420" width="520" height="174" rx="10" fill="white" stroke="#cbd5df"/><text x="644" y="463" font-size="25">Streamlit · 공개 조회 스냅샷</text><text x="644" y="502" font-size="22">ASK1 활성 탐색 / Selonsertib 연결 사례</text><text x="644" y="540" font-size="22">표적 질환·형질 / 수집·품질</text><path d="M980 370V412M600 370V393H320V412" fill="none" stroke="#244a70" stroke-width="2"/><text x="60" y="648" font-size="19">Snowflake Warehouse: SQL 실행 컴퓨트  ·  수집 2026-09-07–08 / 검증 2026-09-11</text></g></svg>